<svg width="217" height="40" viewBox="0 0 217 40" fill="none" xmlns="http://www.w3.org/2000/svg">
<path d="M0 0.5V39.1582H38.9707V0.5H0ZM33.3846 33.617H16.6149V22.5268H5.43894V5.89533H33.3846V33.617Z" fill="#0007FF"/>
<path d="M27.7951 11.4375H16.6152V22.5277H27.7951V11.4375Z" fill="#0007FF"/>
<path d="M55.5115 29.1051C55.8076 31.7482 58.116 33.5698 62.2007 33.5698C65.6934 33.5698 67.8257 32.4547 67.8257 30.3394C67.8257 27.8709 65.7534 27.6963 60.8405 27.0494C53.7352 26.2279 48.2302 24.6404 48.2302 18.4136C48.2302 12.1868 53.4992 8.48805 61.3166 8.54758C69.486 8.54758 75.111 12.1313 75.5271 18.2985H67.5337C67.2976 15.8896 64.9892 14.4212 61.6126 14.4212C58.236 14.4212 56.2237 15.5959 56.2237 17.5326C56.2237 19.8225 58.8281 20.0566 63.2089 20.5884C70.1942 21.2948 75.9992 22.8783 75.9992 29.6925C75.9992 35.6851 70.3142 39.503 62.1447 39.503C53.9753 39.503 47.9342 35.5661 47.5781 29.1051H55.5115Z" fill="#0007FF"/>
<path d="M82.572 15.9459H77.5391V8.95717H82.572V0.5H90.9215V8.95717H97.9067V15.9459H90.9215V29.1615C90.9215 31.2768 91.7496 32.1578 93.942 32.1578H98.0867V39.1466H91.2775C85.4765 39.1466 82.576 36.2693 82.576 30.5108V15.9459H82.572Z" fill="#0007FF"/>
<path d="M100.275 24.1129C100.275 14.7152 106.492 8.60742 115.906 8.60742C125.32 8.60742 131.181 14.2469 131.301 23.1128C131.301 23.9938 131.241 24.9939 131.065 25.9305H108.981V26.3433C109.157 30.6294 111.941 33.2169 116.146 33.2169C119.523 33.2169 121.891 31.7485 122.599 28.9308H130.829C129.881 34.8044 124.612 39.5033 116.502 39.5033C106.376 39.5033 100.279 33.4551 100.279 24.1169L100.275 24.1129ZM122.891 20.5292C122.299 16.8304 119.755 14.7747 115.962 14.7747C112.17 14.7747 109.625 16.9495 109.153 20.5292H122.887H122.891Z" fill="#0007FF"/>
<path d="M165.819 32.1574V39.1462H161.555C157.234 39.1462 155.87 37.0905 155.93 34.2132C153.797 37.5627 150.721 39.4994 145.984 39.4994C139.411 39.4994 134.674 36.388 134.674 30.6295C134.674 24.2281 139.531 20.5849 148.648 20.5849H154.689V19.1165C154.689 16.4139 152.737 14.6518 149.24 14.6518C145.984 14.6518 143.791 16.1202 143.439 18.3506H135.386C135.978 12.477 141.427 8.59961 149.476 8.59961C158.002 8.59961 162.915 12.3579 162.915 19.5848V30.2763C162.915 31.8638 163.567 32.1574 164.867 32.1574H165.815H165.819ZM154.689 26.1092H148.592C145.1 26.1092 143.087 27.5181 143.087 30.0461C143.087 32.1614 144.804 33.5107 147.588 33.5107C151.969 33.5107 154.633 30.8081 154.693 26.6966V26.1092H154.689Z" fill="#0007FF"/>
<path d="M216.741 21.819V39.1461H208.391V22.2913C208.391 17.767 206.735 15.4176 203.122 15.4176C199.51 15.4176 197.081 18.0607 197.081 22.6405V39.1461H188.732V22.2913C188.732 17.767 187.075 15.4176 183.403 15.4176C179.73 15.4176 177.422 18.1798 177.422 22.7V39.1461H169.072V8.95664H176.354L177.122 12.7149C178.958 10.3655 181.623 8.66296 186.063 8.60343C189.792 8.5439 193.285 9.89721 195.181 13.715C197.313 10.4846 200.866 8.60343 205.483 8.60343C211.76 8.60343 216.733 12.1276 216.733 21.819H216.741Z" fill="#0007FF"/>
</svg>
