<svg width="308" height="56" viewBox="0 0 308 56" fill="none" xmlns="http://www.w3.org/2000/svg">
<path d="M0 0V55.5093H55.3602V0H0ZM47.4249 47.5526H23.6025V31.6282H7.72634V7.74714H47.4249V47.5526Z" fill="#0007FF"/>
<path d="M39.4832 15.7031H23.6016V31.6275H39.4832V15.7031Z" fill="#0007FF"/>
<path d="M78.8558 41.0742C79.2764 44.8695 82.5556 47.4851 88.3582 47.4851C93.3197 47.4851 96.3489 45.8838 96.3489 42.8465C96.3489 39.302 93.405 39.0512 86.4259 38.1224C76.3325 36.9428 68.5123 34.6633 68.5123 25.7223C68.5123 16.7813 75.9972 11.4702 87.1022 11.5557C98.7075 11.5557 106.698 16.7015 107.289 25.5571H95.934C95.5987 22.098 92.3195 19.9896 87.5228 19.9896C82.7261 19.9896 79.8675 21.6763 79.8675 24.4572C79.8675 27.7453 83.5673 28.0815 89.7904 28.8451C99.7134 29.8595 107.96 32.1332 107.96 41.9176C107.96 50.5224 99.8839 56.0044 88.2787 56.0044C76.6735 56.0044 68.0917 50.3515 67.5859 41.0742H78.8558Z" fill="#0007FF"/>
<path d="M117.298 22.1788H110.148V12.1436H117.298V0H129.159V12.1436H139.082V22.1788H129.159V41.155C129.159 44.1923 130.335 45.4574 133.45 45.4574H139.338V55.4925H129.665C121.424 55.4925 117.304 51.3611 117.304 43.0925V22.1788H117.298Z" fill="#0007FF"/>
<path d="M142.445 33.9068C142.445 20.4127 151.277 11.6426 164.65 11.6426C178.022 11.6426 186.348 19.7402 186.519 32.4708C186.519 33.7359 186.434 35.1719 186.184 36.5168H154.812V37.1094C155.062 43.2639 159.018 46.9793 164.991 46.9793C169.787 46.9793 173.152 44.8709 174.158 40.8249H185.848C184.501 49.2587 177.017 56.0058 165.497 56.0058C151.112 56.0058 142.451 47.3212 142.451 33.9125L142.445 33.9068ZM174.573 28.761C173.732 23.45 170.117 20.4981 164.729 20.4981C159.342 20.4981 155.727 23.6209 155.056 28.761H174.567H174.573Z" fill="#0007FF"/>
<path d="M235.555 45.4575V55.4926H229.496C223.358 55.4926 221.42 52.5408 221.506 48.4093C218.477 53.2189 214.106 55.9998 207.377 55.9998C198.04 55.9998 191.311 51.5321 191.311 43.2635C191.311 34.0718 198.21 28.8405 211.162 28.8405H219.744V26.732C219.744 22.8513 216.97 20.3212 212.003 20.3212C207.377 20.3212 204.263 22.4296 203.763 25.6322H192.322C193.163 17.1983 200.904 11.6309 212.339 11.6309C224.45 11.6309 231.429 17.0274 231.429 27.4045V42.7564C231.429 45.0358 232.355 45.4575 234.202 45.4575H235.549H235.555ZM219.744 36.7729H211.083C206.121 36.7729 203.262 38.7959 203.262 42.4259C203.262 45.4632 205.701 47.4007 209.656 47.4007C215.879 47.4007 219.664 43.52 219.75 37.6163V36.7729H219.744Z" fill="#0007FF"/>
<path d="M307.892 30.6117V55.4916H296.031V31.2898C296.031 24.7935 293.678 21.4199 288.546 21.4199C283.414 21.4199 279.964 25.2152 279.964 31.7913V55.4916H268.103V31.2898C268.103 24.7935 265.75 21.4199 260.533 21.4199C255.316 21.4199 252.037 25.3861 252.037 31.8768V55.4916H240.176V12.1427H250.519L251.61 17.5392C254.219 14.1657 258.004 11.721 264.313 11.6355C269.609 11.55 274.571 13.4932 277.265 18.9752C280.294 14.3366 285.341 11.6355 291.899 11.6355C300.816 11.6355 307.88 16.6958 307.88 30.6117H307.892Z" fill="#0007FF"/>
</svg>
