<svg width="91" height="92" viewBox="0 0 91 92" fill="none" xmlns="http://www.w3.org/2000/svg">
<path d="M90.7685 82.5307L82.0685 91.2207L52.7285 61.8807L57.3885 57.2207L61.4285 53.1807L90.7685 82.5307Z" fill="black"/>
<path d="M26.5069 0.866183L0.280273 27.0928L8.97769 35.7902L35.2043 9.5636L26.5069 0.866183Z" fill="black"/>
<path d="M43.9074 0.864108L35.21 9.56152L61.4366 35.7881L70.134 27.0907L43.9074 0.864108Z" fill="black"/>
<path d="M8.98648 35.7791L0.289062 44.4766L26.5157 70.7032L35.2131 62.0057L8.98648 35.7791Z" fill="black"/>
<path d="M61.4385 35.7793L35.2119 62.0059L43.9093 70.7033L70.1359 44.4767L61.4385 35.7793Z" fill="black"/>
<path d="M13.5583 44.6308L0.238281 44.4308L0.308281 27.0908L13.5583 27.2008V44.6308Z" fill="black"/>
<path d="M70.1183 44.5107L56.5283 44.3107L56.5983 26.9707L70.1183 27.0807V44.5107Z" fill="black"/>
<path d="M26.3682 57.1006L26.5082 70.7006H43.9082L43.7982 57.1006H26.3682Z" fill="black"/>
<path d="M26.498 0.879883L26.638 15.2999H44.038L43.928 0.879883H26.498Z" fill="black"/>
</svg>
