<svg width="88" height="88" viewBox="0 0 88 88" fill="none" xmlns="http://www.w3.org/2000/svg">
<path d="M21.5771 75.7959H74.5771V87.7959H21.5771V75.7959Z" fill="black"/>
<path d="M15.5771 25.7959H76.5771V37.7959H15.5771V25.7959Z" fill="black"/>
<path d="M12.5771 40.7959L12.5771 67.7959L0.577148 67.7959L0.577149 40.7959L12.5771 40.7959Z" fill="black"/>
<path d="M62.5771 28.7959L62.5771 56.7959L50.5771 56.7959L50.5771 28.7959L62.5771 28.7959Z" fill="black"/>
<path d="M9.10742 58.8418L29.5845 79.3189L20.9039 87.9996L0.426758 67.5225L9.10742 58.8418Z" fill="black"/>
<path d="M87.4492 64.7959L74.226 87.6992L63.8337 81.6992L77.0569 58.7959L87.4492 64.7959Z" fill="black"/>
<path d="M81.6562 74.668L50.6011 56.7383L56.6011 46.346L87.6563 64.2757L81.6562 74.668Z" fill="black"/>
<path d="M37.4268 12.7959L58.2114 0.795897L64.2114 11.1882L43.4268 23.1882L37.4268 12.7959Z" fill="black"/>
<path d="M23.8057 34.0352L8.82422 49.0166L0.572267 40.7646L15.5537 25.7832L23.8057 34.0352Z" fill="black"/>
</svg>
