<svg width="88" height="87" viewBox="0 0 88 87" fill="none" xmlns="http://www.w3.org/2000/svg">
<path d="M0.516602 74.5908H87.3766V86.9994H0.516602V74.5908Z" fill="black"/>
<path d="M0.516602 0.139648H87.3766V12.5482H0.516602V0.139648Z" fill="black"/>
<path d="M12.9258 0.139648L12.9258 86.9996L0.517206 86.9996L0.51721 0.139648L12.9258 0.139648Z" fill="black"/>
<path d="M87.377 0.139648L87.3769 86.9996L74.9684 86.9996L74.9684 0.139648L87.377 0.139648Z" fill="black"/>
<path d="M25.334 46.6719H37.7426V59.0804H25.334V46.6719Z" fill="black"/>
<path d="M43.9463 46.6719H61.5251V59.0804H43.9463V46.6719Z" fill="black"/>
<path d="M47.0537 18.7559L56.0798 27.782L43.6698 40.1921L34.6436 31.1659L47.0537 18.7559Z" fill="black"/>
<path d="M34.6406 31.1611H47.0492V49.774H34.6406V31.1611Z" fill="black"/>
<path d="M34.6406 49.7734H47.0492V62.182H34.6406V49.7734Z" fill="black"/>
<path d="M34.6406 62.1826H47.0492V74.5912H34.6406V62.1826Z" fill="black"/>
<path d="M47.0488 18.7529H61.5255V31.1615H47.0488V18.7529Z" fill="black"/>
</svg>
