<svg width="169" height="169" viewBox="0 0 169 169" fill="none" xmlns="http://www.w3.org/2000/svg">
<path fill-rule="evenodd" clip-rule="evenodd" d="M47 47V9H9V47H47ZM0 56V0H56H113H169V56V169H56H0V113V56ZM9 113V105H23H32V90H56V81H39V73H56V64H39V72H32H28H23V64H9V56H56V9H64V17H72V32H64V56V65V72V81V96H40V105H64V113H73V122H64V131H73V135V137V143H64V152V160H56V113H9ZM73 122H80V128H73V122ZM104 97H128V88H120H111V73H88V81H73V96H80V105H73V113H87V105H96V113H104V106V105V97ZM104 97V88H95V97H104ZM128 73V79H120V73H128ZM135 64H128H120H111H95V56H104V47H95V56H89V40H80V56H73V32H81V25H88V32H95V41H104V24H97V17H104V9H113V56H160V64H152V73H160V96H152V105H144V89H153V80H144V72H137V64H135ZM144 88V81H137V88H144ZM135 97H129V105H135V97ZM135 122H121V114H111V122H121V128H135V122ZM144 160H160V152H153H152H144V160ZM144 137H152V128H160V105H153V120H144V137ZM153 143V137H160V143H153ZM88 16H81V9H88V16ZM23 73V96H9V73H23ZM104 122V128H95V122H104ZM73 152V144H88V137H128V144H111V153H121V160H103V152H95V160H79V152H73ZM9 122V160H47V122H9ZM160 47V9H122V47H160ZM15 15H41V41H15V15ZM15 128V154H41V128H15ZM128 15H154V41H128V15Z" fill="black"/>
</svg>
