<svg width="88" height="87" viewBox="0 0 88 87" fill="none" xmlns="http://www.w3.org/2000/svg">
<rect x="0.65625" y="74.5908" width="38.2598" height="12.4086" fill="black"/>
<rect x="30.1279" y="78.2031" width="51.1799" height="12.4265" transform="rotate(-45 30.1279 78.2031)" fill="black"/>
<rect x="0.660156" y="74.5947" width="32.5626" height="12.5121" transform="rotate(-45 0.660156 74.5947)" fill="black"/>
<rect x="62.6992" y="50.8076" width="31.0214" height="12.4086" transform="rotate(-90 62.6992 50.8076)" fill="black"/>
<rect x="37.8818" y="42.5352" width="29.9874" height="12.4086" transform="rotate(-90 37.8818 42.5352)" fill="black"/>
<rect x="87.5166" y="24.957" width="44.464" height="12.4086" transform="rotate(180 87.5166 24.957)" fill="black"/>
<rect x="13.0771" y="0.15332" width="47.5297" height="12.4086" transform="rotate(45 13.0771 0.15332)" fill="black"/>
<rect x="9.18262" y="37.1182" width="33.1074" height="12.0452" transform="rotate(45 9.18262 37.1182)" fill="black"/>
<rect x="13.0645" y="0.139648" width="45.4981" height="12.4086" transform="rotate(90 13.0645 0.139648)" fill="black"/>
</svg>
