<svg width="87" height="88" viewBox="0 0 87 88" fill="none" xmlns="http://www.w3.org/2000/svg">
<path d="M86.4268 0.956055L86.4268 87.9561L74.4268 87.9561L74.4268 0.956054L86.4268 0.956055Z" fill="black"/>
<path d="M45.4268 16.9561L45.4268 71.9561L33.4268 71.9561L33.4268 16.9561L45.4268 16.9561Z" fill="black"/>
<path d="M78.4268 49.9561L8.42676 49.956L8.42676 37.9561L78.4268 37.9561L78.4268 49.9561Z" fill="black"/>
<path d="M78.0791 12.5469L3.5218 32.5245L0.415968 20.9334L74.9733 0.955772L78.0791 12.5469Z" fill="black"/>
<path d="M74.4668 88L0.400163 68.1539L3.49432 56.6064L77.561 76.4525L74.4668 88Z" fill="black"/>
<path d="M12.4268 20.9561L12.4268 67.9561L0.426758 67.9561L0.42676 20.9561L12.4268 20.9561Z" fill="black"/>
</svg>
